<?xml version="1.0" encoding="utf-8"?>
<!-- Generator: Adobe Illustrator 24.0.0, SVG Export Plug-In . SVG Version: 6.00 Build 0)  -->
<svg version="1.1" id="Layer_1" xmlns="http://www.w3.org/2000/svg" xmlns:xlink="http://www.w3.org/1999/xlink" x="0px" y="0px"
	 viewBox="0 0 124 100" style="enable-background:new 0 0 124 100;" xml:space="preserve">
<style type="text/css">
	.st0{fill:#DC2A2D;}
	.st1{fill:#929497;}
	.st2{fill:#231F20;}
	.st3{fill:#FFFFFF;}
</style>
<g>
	<g>
		<g>
			<path class="st0" d="M115.9,69.8v-6.1l0.8-0.1l1.7-0.5l1.4-0.8L121,61l0,0l0,0h0.1v-0.1l0,0l0,0l0,0l0,0l0.1,0.8v0.6l-0.1,0.8
				l-0.2,0.6l-0.3,0.7l-0.3,0.8l-0.5,0.7l-0.4,0.8l-1.1,1.6l-1.3,1L115.9,69.8L115.9,69.8z M115.9,60.2v-6.9l1-1.7l1.3-1.7l1.3-1.7
				l1.4-1.6l0,0h0.1l0,0h0.1l0,0h0.1l0,0l0,0l-0.1,0.9v0.8v0.9v0.9V51l0.1,0.9v1l0.1,1l-0.3,1.4l-0.6,1.2l-0.9,1l-1.1,0.9l-1.2,0.8
				l-1.3,0.8L115.9,60.2L115.9,60.2z M115.9,48.7l0.8-0.5l1.1-0.8l0.9-0.9l1-0.9l0.7-1l0.6-1l0.4-1.1v-1.2l-0.1-1l-0.2-1l-0.5-0.9
				l-0.3-1l-0.4-0.9l-0.3-0.9l-0.1-0.9l0.1-1l-0.9,0.6l-0.7,0.8l-0.6,0.8l-0.5,0.9l-0.3,0.9l-0.2,0.9l-0.1,1l0.1,0.9l0.2,0.9
				l0.3,0.8l0.3,0.9l0.1,0.9l0.1,0.9v0.8l-0.3,0.9l-0.5,0.8l-0.1,0.3l-0.3,0.2l-0.1,0.1l-0.1,0.2l-0.1,0.1V48.7L115.9,48.7z
				 M115.9,26v-0.6l0.2-0.1l0,0l0,0h0.1l0.1,0.1l0,0h0.1l0,0l0,0l-0.1,0.1l-0.1,0.1l-0.1,0.3L115.9,26L115.9,26z M110.3,27.2
				l0.2-0.5v-0.5l0.1-0.7l-0.1-1.2l-0.2-0.7V27.2L110.3,27.2z M115.9,25.4V26l-0.1,0.1l-0.1,0.2l-0.1,0.1l-0.3,0.2l-0.7,0.9l-0.4,1
				l-0.3,1v1l0.1,0.9l0.1,1l0.4,0.9l0.3,0.9l-0.1,0.6l-0.1,0.6l-0.3,0.7l-0.2,0.5l-0.4,0.6l-0.5,0.4l-0.5,0.4l-0.6,0.2v-1l-0.2-1.1
				l-0.5-1l-0.6-1.1l-0.5-0.9v-3.5l0-0.2l0.4-0.9l0.6-0.7l0.6-0.8l0.8-0.6l0.8-0.4l0.9-0.4l0.7-0.3L115.9,25.4L115.9,25.4z
				 M115.9,48.2v0.5l-0.3,0.2l0,0h-0.1l0,0h-0.1l0,0v-0.1l0,0v-0.1l0.1-0.1l0.1-0.2L115.9,48.2L115.9,48.2L115.9,48.2z M115.9,53.3
				v6.9l-0.9,0.6l-1,0.9l-0.1-0.1l0,0l-0.1-0.1l0,0l-0.1-0.1l0,0l0,0l-0.1-0.1l0.1-2l0.5-2l0.7-2l0.9-1.8L115.9,53.3L115.9,53.3z
				 M115.9,63.7v6.1l-0.2,0.1l-1.4,0.3l-1.7,0.3l-1.6,0.3l-0.6,0.1v-4.5l0-0.1l1.3-1.2l1.6-0.6l1.7-0.6L115.9,63.7L115.9,63.7z
				 M110.3,77.5v-1.9l1.1-0.8l0,0l0,0l0,0h0.1l0,0l0,0l0,0l0,0l-0.1,0.5l-0.2,0.6l-0.3,0.4l-0.3,0.5l-0.2,0.5L110.3,77.5L110.3,77.5
				z M110.3,64.1l0.6-1.2l1-2.3l0.8-3.1l0.4-3.2v-3.4l-0.3-3.4l-0.6-3.2l-0.9-3.2l-1.1-3l0-0.1v6.1l0,0.3l0.3,4.1l-0.3,4l0,0.3V64.1
				z M110,15.6l-0.5,0.2l-0.6,0.1l-0.6,0.3l-0.6,0.3l-0.5,0.4l-0.5,0.4l-0.5,0.5l-0.3,0.6l-0.2,1.4v1.4l0.1,1.4l0.3,1.4l0.2,1.5
				l0.4,1.3l0.4,1.3l0.3,1.3h0.1l0.1,0.1l0,0l0.1,0.1l0,0h0.1l0.1,0.1h0.1l0,0l0,0h0.1l0,0h0.1l0,0h0.1h0.1l0.5-0.4l0.5-0.5l0.4-0.5
				l0.3-0.7l0.1-0.5l0.1-0.2v-3.7l-0.1-0.3l-0.4-1.1l-0.5-0.9l-0.4-0.9l-0.3-0.9v-1l0.4-0.9l0.1-0.3l0.1-0.3l0.2-0.3l0.1-0.2
				l0.2-0.3l0.1-0.2l0.1-0.2v-0.2l0,0l0,0v0.1h-0.1l0,0l0,0H110L110,15.6L110,15.6z M110.3,29.7v3.5l-0.1-0.1L110,32v-1.2
				L110.3,29.7L110.3,29.7z M110.3,37.9v6.1l-0.7-3.8l-1.4-2.8l-1.4-2.9l-1.6-2.9l-1.6-2.9l-1.8-2.7l-0.9-1V11.3l0.5-0.9l0.9-1.1
				l1.2-0.9l1.4-0.7l0,0l0,0h0.1l0,0v0.1l0,0l0,0l0,0v0.4l-0.1,0.3L104.9,9l-0.1,0.4l-0.3,0.3l-0.3,0.4l-0.1,0.5l-0.1,0.4l-0.5,3.1
				l-0.1,3.1l0.4,3.1l0.6,3.1l0.8,3l1.1,2.9l1.3,2.8l1.4,2.8L110.3,37.9L110.3,37.9z M110.3,52.7v11.4l-0.5,1l-1.4,2.1l-1.4,2
				l-1.7,1.9l-1.9,1.8l-2.1,1.6l-0.3,0.2v-3.2l0.9-0.6l2.7-3.4l2.2-3.6l1.7-3.7l1.2-3.8L110.3,52.7L110.3,52.7z M110.3,66.4
				l-0.8,1.6l-0.4,0.5l-0.4,0.4l-0.4,0.5l-0.3,0.3l-0.2,0.4l-0.1,0.4l-0.1,0.5l-0.1,0.4l0.1,0.1l0,0l0,0l0.1,0.1l0,0l0,0l0.1,0.1
				h0.1l1.4-0.6l0.8-0.2V66.4L110.3,66.4z M110.3,75.5v1.9l-0.2,0.2l-0.3,0.4l-0.4,0.6l-0.7,0.4l-0.6,0.6l-0.8,0.4l-0.7,0.4
				l-0.8,0.4l-0.9,0.3l-0.8,0.2l-0.8,0.2h-1.1l-1.1-0.1H101V77l0.4-0.1l2.2-0.1l2.2-0.1l2.2-0.2l1.9-0.5L110.3,75.5L110.3,75.5z
				 M101,83.3v-0.3h0l0,0h0.1l0,0L101,83.3L101,83.3z M101,66.4l0.2-0.2l1.1-1.8v-0.6v-0.4V63v-0.5l-0.1-0.4v-0.4l-0.1-0.5l-0.1-0.5
				l-0.9,0.9V66.4L101,66.4z M101,52l0.3,0.7l0.6,1.6l0.6,1.6l0.6,1.7l0.5,1.8l0.3,1.8l0.1,1.9l-0.1,1.8l0.7-0.7l0.6-0.8l0.5-0.9
				l0.5-1l0.4-1l0.3-1l0.1-1v-0.9l-0.1-0.4l-0.1-0.3l-0.1-0.4l-0.1-0.3l-0.1-0.4l-0.1-0.3l-0.1-0.4l-0.3-0.3l-4.7-3.1V52L101,52z
				 M101,46.5l0,0.2l0.3,0.9l0.4,0.8l0.8,1l1,0.8l1.1,0.8l1,0.8l1.1,0.6l0.8,0.8l0.7,1l0.4,1.1l0.4-0.6l0.4-0.6l0.3-0.7l0.1-0.8
				v-0.9v-0.9V50l-0.1-0.8V49l-0.1-0.3v-0.2l-0.1-0.2v-0.1l-0.1-0.2l-0.1-0.1l-0.1-0.2l-1-0.7l-1.2-0.6l-1.1-0.7l-1.1-0.5l-1.1-0.8
				l-1-0.8l-0.8-0.9l-0.5-1.1l-0.2,0.5V46.5L101,46.5z M101,38.8l0.6,0.8l0.8,0.8l1.1,0.5l1,0.6l1,0.5l0.9,0.5l0.9,0.6l0.8,0.6
				l0.7,0.8l0.6,0.8v-1.1l-0.1-1.1l-0.2-1l-0.3-1l-0.5-1l-0.6-1l-0.6-1l-0.8-1l0,0l0,0l0,0l0,0l0,0h-0.1v-0.1l0,0l-5.2-2.7V38.8
				L101,38.8z M101,31.9l1.3,0.6l1.3,0.6v-0.8v-0.8l-0.1-0.8l-0.3-0.8l-0.4-0.7l-0.5-0.8l-0.5-0.8l-0.5-0.8l0,0l0,0h-0.1l0,0h-0.1
				l0,0v-0.1l0,0l-0.2-0.1V31.9z M101,11.3v13.6l-1.3-1.4l-2.5-2.2L94,19.6l-0.6-0.9l-0.5-0.9l-0.1-0.9l-0.1-1V15l0.1-0.9l0.1-1
				v-0.9H93l0,0h0.1l0,0h0.1l0,0l0,0h0.1l0.5,1l0.6,1l0.6,1.1l0.8,1l0.7,0.9l1,0.9l1,0.8l0.9,0.7l0.1,0.1l0,0h0.1v-0.1h0.1v-0.1h0.1
				l0,0v-0.4v-0.2l-0.1-0.3v-0.2v-0.3l-0.1-0.4v-0.3v-0.3v-1.3l0.1-1.3l0.4-1.4l0.5-1.4L101,11.3L101,11.3z M101,26.7l-0.8-0.5
				L99,25.6l-1.1-0.5l-1.2-0.5l-0.9-0.7l-1-0.8l-0.6-0.9l-0.4-1.1l-0.5,0.6l-0.4,0.7l-0.1,0.8L92.7,24v0.8l0.1,0.8l0.2,0.7l0.3,0.6
				l1,1.2l1.1,1l1.2,0.9l1.3,0.6l1.4,0.6l1.4,0.5l0.2,0.1V26.7L101,26.7z M101,34.2v4.5l-0.1-0.1l-0.7-1l-0.6-1l-0.5-1l-0.4-1
				l-0.3-0.9l-0.1-0.9L101,34.2L101,34.2z M101,42.1v4.4l-0.2-0.7l-0.1-0.9V44v-0.9l0.3-0.9L101,42.1L101,42.1z M101,51.5V52
				l-0.3-0.8L101,51.5L101,51.5z M101,61.6v4.8l-1.3,1.3l-1.6,1.4l-1.7,1.3l-1.7,1.4l-1.3,1.6l-0.9,1.8l-0.5,2l1.4-0.5l1.3-0.6
				l1.2-0.8l1.2-0.9l1.2-0.9l1.1-0.9l1.2-1l0.3-0.2v3.2L99,76l-4,2.1l-3.9,1.8l-3.9,1.6l0,0v-2.3l0,0l1.6-0.6l0.1-0.1v-0.3l0.1-0.2
				l0.1-0.2l0.1-0.1l0.1-0.2l0.1-0.2l0.3-0.1l0.4-1.1l0.5-0.9l0.5-0.9l0.7-0.9l0.6-0.8l0.8-0.7l0.8-0.6l0.9-0.6v-0.2v-0.2v-0.2
				l-0.1-0.2l-0.1-0.1v-0.2l-0.1-0.1L94.4,69l-1,0.4l-0.9,0.4l-0.9,0.6l-0.7,0.8l-0.7,0.9l-0.5,1l-0.5,1L89,75.2l-0.7,0.9l-0.7,0.6
				L87.3,77v-7.7l0.3-0.1l1.3-0.4l1.3-0.4l1.4-0.4l1.3-0.1l1.3,0.1l0.4-1.3l0.6-1.1l1-1l1.1-0.8l1.2-0.6l1.2-0.7L101,61.6L101,61.6
				L101,61.6z M101,77l-1.5,0.4l-1.8,1l-1.3,1.8l-0.1,0.3l-0.3,0.2l-0.1,0.4l-0.1,0.3l-0.1,0.2L95.5,82l-0.1,0.3l-0.1,0.2l1-0.5
				l0.8-0.3l1-0.1h1.1h1h0.9V77L101,77z M101,83.1v0.3l-0.3,0.4l-0.5,0.5L99.5,85l-0.5,0.5l-0.7,0.6l-0.7,0.5L96.9,87l-0.8,0.4
				l-1.4,0.3l-1.4-0.1l-1.3-0.5l-1.4-0.5l-1.3-0.7l-1.4-0.4l-0.4,0v-2.6l0.5-0.2l0.6-0.2l0.5-0.3l0.6-0.1h0.5h0.6l0.6,0.3l0.6,0.2
				l0.6,0.2l0.5,0.3l0.9,0.5l1,0.2l1.1,0.1l1.1,0.1l1-0.1l0.9-0.1l1.1-0.4l0.9-0.3l0,0h0.1L101,83.1L101,83.1L101,83.1L101,83.1z
				 M87.3,91.4v-1.8l1.4,0.4h1.9V90l0,0l0,0v0.1l0,0l0,0v0.1l0,0l-1.6,0.6l-1.7,0.5H87.3z M87.3,69.3V77l-0.7,0.5l-1,0.4l-0.9,0.5
				l-1.1,0.2l-1,0.1l-1,0.1l0.1-0.2l0.2-0.1l0.3-0.3l0.3-0.1l0.2-0.1l0.3-0.2l0.3-0.2l0.2-0.3l0.3-0.8l0.4-0.8l0.3-0.9l0.4-0.8
				l0.2-0.8l0.3-0.8l0.1-0.7v-0.6l-0.7,0.5l-0.7,0.7L83.2,73l-0.6,0.7l-0.5,0.6l-0.5,0.8L81,75.9l-0.5,0.9l-1.1,1l-1.1,0.8l-1.2,0.6
				L76,79.8l-1.2,0.4l-1.3,0.2h-1.2l-1.3-0.1l0.7-0.5l0.7-0.6l0.5-0.8l0.5-0.8l0.5-0.8l0.4-0.9l0.2-0.9l0.4-0.9l0.6-1.1l0.8-1l1-0.8
				l1.2-0.6l1.2-0.6l1.2-0.3l1.3-0.2l1.4-0.1l1.3,0.2l1.3-0.1L87.3,69.3L87.3,69.3z M87.3,79.1l-1.6,0.6L84,80.2l-1.6,0.4L80.8,81
				l-1.7,0.2l-1.7,0.2l-1.8,0.2l-1.4,0.1l-1.6,0.1L71.1,82l-1.6,0.3l-1.4,0.1l-1.6,0.3l-1.3,0.4l-1.4,0.6h-0.1h-0.1h-0.1h-0.1h-0.1
				l0,0h-0.1l0,0L59,82.4l-4.1-0.9l-4.2-0.7l-4.3-0.5l-4.2-0.7l-4.2-1l-0.6-0.2v2.2l1.2,0.5l4.7,1.6l4.5,1.1l4.6,1l1,0.3l0.8,0.1
				l1,0.1l0.9,0.1l0.9,0.1l0.8,0.2l0.8,0.2l0.7,0.5l-5.5,5.7l5.8-0.3v-0.7l0.1-0.5l0.3-0.6l0.4-0.4l0.4-0.4l0.5-0.5l0.5-0.3l0.6-0.3
				l0.1-0.1h0.3h0.1l0.1-0.1H63h0.1l0,0l0.1-0.1l3.1,4.2l0.5-0.2l0.6-0.1l0.5-0.1l0.6-0.1h0.6h0.6l0.6,0.1l0.6,0.2H71l0.1-0.1v0.1
				h0.1l0,0l0,0v-0.1l0.1-0.3l-4.3-4.5l-0.1-0.1l-0.1-0.1v-0.1v-0.1l0,0V86v-0.1l0.3-0.1l4.2-0.5l4.2-0.8l4-0.8l4-1l3.9-1.2V79.1
				L87.3,79.1z M87.3,82.8v2.6l-1.2-0.2l-1.4,0.2h-0.1h-0.1h-0.1h-0.1L84,85.3l-0.1-0.1l0.1-0.1l0.1-0.1l0.4-0.5l0.5-0.4l0.5-0.3
				l0.5-0.3l0.6-0.4l0.6-0.2L87.3,82.8L87.3,82.8z M87.3,89.5v1.8l-1.6,0.3L84,91.9h-1.8l-1.7-0.1l-1.7-0.4l-1.6-0.6l-0.2-0.5
				l-0.5-0.7L76.1,89l-0.7-0.4l-0.6-0.4L74,87.8l-0.7-0.3l-0.7-0.2l0.1-0.4l0.2-0.1l0.3-0.2l0.3-0.1l0.4-0.1l0.4-0.1l0.4-0.1
				l0.4-0.1l1.9-0.5l1.9,0.2l1.9,0.7l2,1l2.1,1.1l1.9,0.9L87.3,89.5L87.3,89.5z M37.3,91.6V89l0.6-0.1l1.7-0.6l1.6-0.6l1.6-0.8
				l1.6-0.8l1.6-0.7l1.1-0.1l1-0.1h0.9l1,0.1l0.8,0.1l1,0.3l0.8,0.5l0.9,0.4l0.1,0.1v0.1V87v0.1v0.1v0.1l-0.1,0.1l0,0l-1.1,0.1
				l-1,0.3l-0.8,0.3l-1,0.5l-0.8,0.5L48,89.8l-0.7,0.7l-0.6,0.8L46,91.4l-0.6,0.2l-0.6,0.2L44.1,92l-0.6,0.1l-0.7,0.1l-0.8,0.1h-0.8
				L40,92.2L38.8,92l-1.2-0.3L37.3,91.6L37.3,91.6z M37.3,85.6V82l0,0l1,0.6l0.8,0.5l1,0.7l0.8,0.6l0.7,0.6l0,0v0.1h0.1v0.1l0,0
				l0.1,0.1l0,0l0,0l-1.6-0.1h-1.4l-1.4,0.3L37.3,85.6L37.3,85.6z M37.3,75.9v-7.2l0.9,0.4l0.9,0.6l1,0.6l0,0l0.1-0.1h0.1h0.1
				l0.1-0.1h0.1l0.1-0.1L41,70H42h1.1l1.1,0.1l1,0.2l1.1,0.2l1,0.5l0.9,0.5l0.9,0.7l0.6,1.1l0.6,1.1l0.4,1.1l0.5,1l0.6,0.9l0.7,0.9
				l0.8,0.8l1.1,0.7L53,80.5L51,80.2l-1.7-0.5l-1.6-1l-1.3-1.2L45.2,76l-1.1-1.6L43,72.9l-1-1.4l-0.2-0.1l-0.3-0.2L41.3,71l-0.2-0.1
				l-0.3-0.1h-0.3h-0.2L40.2,71l4,7.7L44,78.8l-0.1,0.1h-0.2h-0.1h-0.1h-0.3H43h-0.1l-0.7-0.1l-0.9-0.2l-0.8-0.4l-0.7-0.3L39,77.5
				L38.3,77l-0.6-0.5L37.3,75.9z M37.3,68.8v7.2l-0.1-0.1l-0.4-1.1l-0.5-1.1l-0.6-1l-0.6-1l-0.7-1l-0.8-0.9l-1-0.8l-1.1-0.6l1.1-0.4
				l1.2-0.1l1.1,0.1l1,0.4l1.1,0.4L37.3,68.8L37.3,68.8z M37.3,78.4L33.7,77l-4.1-2.3L27,72.9l-1.2-0.9v2.7l3.7,2.3l4.5,2.2l3.4,1.4
				V78.4L37.3,78.4z M37.3,82v3.6L36,85.9l-1.6,0.5L33,86.8L31.5,87l-1.6,0.1L29,86.9l-0.7-0.3l-0.6-0.4l-0.6-0.5l-0.6-0.5L26,84.4
				L25.8,84v-0.9l0,0h0.1l0.1,0.1h0.1l0.3,0.1l0.9,0.3l1,0.2h1.1l1.1-0.1l1-0.4l1-0.3l0.9-0.5l0.8-0.8l1.1-0.1l1,0.1L37.3,82
				L37.3,82z M37.3,89v2.6l-1-0.4l-1-0.5l-1.1-0.5l-0.8-0.7l-0.6-0.6l1.8,0.3h1.7L37.3,89L37.3,89z M25.8,80.5v-3.8L27,77l1.9,1.4
				l0.2,0.3l0.3,0.2l0.3,0.3l0.1,0.2l0.3,0.4l0.1,0.3l0.3,0.3l0.1,0.3V81v0.2v0.2v0.2v0.2l-0.1,0.2l-0.1,0.1H30l-1.6-1.1l-1.8-0.6
				L25.8,80.5L25.8,80.5z M25.8,67.7v-6.1l0.1,0.1l0.9,0.4l0.8,0.4l0.8,0.4l0.9,0.4L30,64l0.4,1.1l0.2,1v1.1l-0.1,1.1l-0.3,1
				l-0.4,1.1l-0.4,1l-0.6,1l-0.3-1l-0.6-1l-0.6-0.9l-0.7-0.9l-0.9-0.8L25.8,67.7L25.8,67.7z M25.8,46.8v-3.5l0.4,0l1.6-0.1l0,0h0.1
				v0.1H28l0,0h0.1l0,0l0,0v0.3L28,43.9l-0.1,0.3l-0.3,0.3l-0.1,0.2l-0.3,0.4L27,45.5l-0.2,0.4l-0.6,0.6L25.8,46.8L25.8,46.8z
				 M25.8,38.6v-5.2l1.9-0.8l1.9-1.1l0,0l0,0l0,0v0.1l0,0h0.1l0,0l0,0V32l-0.1,0.4l-0.1,0.3V33l-0.1,0.3l-0.1,0.4L29.1,34v0.4
				l-0.8,1.9l-1.2,1.4L25.8,38.6L25.8,38.6z M25.8,31.1v-5.1l0.1-0.1l1.7-1.1l1.7-1.2l1.4-1.4l0.7-1.8l0.2,0.4l0.3,0.3l0.3,0.4
				l0.1,0.6l0.1,0.6v0.6l0.1,0.6v0.7l-0.1,0.8L32.2,26l-0.4,0.8l-0.5,0.7l-0.5,0.8l-0.6,0.7l-0.7,0.5l-0.7,0.5l-0.9,0.4L27,30.6
				L26.1,31L25.8,31.1L25.8,31.1z M25.8,23.3l1.4-1l1.9-1.4l1.7-1.4l1.1-1.8l0.5-2.2v-0.6v-0.5l-0.1-0.6V13v-0.6l-0.1-0.5L32,11.4
				l-0.1-0.4l-0.5,1l-0.5,1l-0.5,1.2l-0.6,1.1l-0.7,1l-0.8,1l-0.8,0.9l-1.1,0.6l-0.3-1.4L26,15.8l-0.3-1V23.3z M25.8,14.8v8.5
				l-0.6,0.4l-1.8,1.6L22.8,26V9.2l0.8,0.7l1,1.3l0.6,1.4l0.5,1.6L25.8,14.8L25.8,14.8z M25.8,25.9l-1.6,1.2l-1.4,1.3v3.6l0.8-0.2
				l0.8-0.2l0.9-0.3l0.5-0.1V25.9L25.8,25.9z M25.8,33.4v5.2l-0.3,0.2l-1.7,0.9l-1,0.4v-5.2l0.7-0.3l2-1L25.8,33.4L25.8,33.4z
				 M25.8,43.3v3.5l-0.4,0.3l-0.6,0.6l-0.6,0.6l-0.7,0.6l-0.7,0.5v-5.9l0.3-0.1l1.6-0.1L25.8,43.3L25.8,43.3z M25.8,61.6v6.1
				l-0.7-0.6l-0.8-0.8l-0.9-0.9l-0.5-0.7v-6.6l0.1-0.6l-0.1-0.3v-0.7l0.9,0.6l0.1,0.2l0.1,0.3l0.1,0.3l0.1,0.3l0.1,0.2l0.1,0.3
				l0.1,0.4l0.1,0.4l0.1,0.9l0.5,0.6L25.8,61.6L25.8,61.6z M25.8,71.9v2.7l-0.5-0.3l-2.5-1.8v-3l1.8,1.6L25.8,71.9L25.8,71.9z
				 M25.8,76.6v3.8l-1-0.1h-1.9h-0.1V76l2,0.3L25.8,76.6L25.8,76.6z M25.8,83.1V84l-0.1-0.2l-0.4-0.7h0.1h0.1h0.1H25.8L25.8,83.1z
				 M22.8,52.2v-1.3h0.5l0,0l0,0h0.1l0,0l0,0h0.1l0,0l0,0L22.8,52.2z M22.8,9.2V26l-0.9,1.2l-0.8,2.3l-0.5,0.9v-5.2l0.6-2.1l0.7-3.9
				l0.3-3.8l-0.4-3.9l-1.2-3.8l1.7,0.9L22.8,9.2L22.8,9.2z M22.8,28.4L22.8,28.4l-0.9,1.7l-0.1,2.2l0.8-0.4l0.2,0V28.4L22.8,28.4z
				 M22.8,34.9v5.2l-0.8,0.3L20.6,41v-4.8l0.9-0.7L22.8,34.9L22.8,34.9z M22.8,43.5v5.9l0,0L21.9,50L21,50.4l-0.4,0.1V44l1.2-0.3
				L22.8,43.5L22.8,43.5z M22.8,50.9v1.3l0,0.1l-0.9,1.4l-0.7,1.4l-0.6,1.5l-0.1,0.1v-5.2l0.5-0.2l0.7-0.4l0.8-0.1H22.8L22.8,50.9z
				 M22.8,56.5l-0.2-0.1l0.2,0.9V56.5L22.8,56.5z M22.8,58.1v6.6l-0.3-0.4l-0.5-1.1v-1.1l0.2-1.2l0.3-1.1l0.3-1.1L22.8,58.1
				L22.8,58.1z M22.8,69.4v3l-1.4-1l-0.9-0.9v-3.3l1.6,1.7L22.8,69.4L22.8,69.4z M22.8,76v4.3h-2l-0.3,0v-4.4l2,0.1L22.8,76z
				 M20.6,25.3v5.2l-1.4,2.4l-1.6,3.2l-0.6,1.6v-4l1.4-2.8l1.7-3.8L20.6,25.3L20.6,25.3z M20.6,36.2l-0.9,0.6l-1.4,1.6l-1,2L16.9,42
				v1H17v0.1h0.1v0.1h0.1v0.1l1.4-1.3l1.7-0.9l0.2-0.1V36.2L20.6,36.2z M20.6,44v6.5l-0.3,0l-0.7,0.1l-0.7,0.3l-0.6,0.5l-0.7,0.4
				L17,52.3l-0.1,0v-6l0.9-0.9l1.2-0.8l1.2-0.5L20.6,44L20.6,44z M20.6,51.6l-0.2,0.1l-0.7,0.5L19,52.8l-0.5,0.5l-0.4,0.7l-0.4,1.1
				l-0.3,1l-0.1,1l0.1,1l0.1,0.9l0.1,0.9l0.3,1l0.4,0.9l0.1,0.1l0.1,0.1l0.1,0.1l0,0l0.1,0.1l0,0H19v0.1l0.3-1.4l0.4-1.4l0.5-1.4
				l0.4-1.3V51.6L20.6,51.6z M20.6,67.2v3.3L18.1,68l-1.2-1.5v-4.2l1.3,2l1.8,2.4L20.6,67.2L20.6,67.2z M20.6,75.9v4.4l-1.6-0.2
				l-1.8-0.6l-0.2-0.1v-4l1,0.2l2.3,0.3H20.6L20.6,75.9z M16.9,28.3l0.3,0.5v0.1h0.1V29h0.1l0,0h0.1v0.1l0,0l0.6-1.1l0.6-1.1
				l0.4-1.1l0.4-1.1l0.2-1.1l0.1-1.2v-1.2l-0.1-1.2l-0.1-0.5l-0.3-0.7l-0.1-0.5L19,17.5l-0.2-0.5l-0.4-0.5l-0.4-0.5l-0.5-0.4
				l-0.6-0.3V28.3z M16.9,15.3v13l-0.6-1l-0.6-1.4l-0.3-1.4v-1.6l0.1-1.4l0.1-1.7l0.3-1.6l0.2-1.6L16,16.2l-0.1-0.3l-0.4-0.3
				l-0.3-0.4L15,14.9l-0.4-0.3l-0.4-0.2L14,14.3L16.9,15.3L16.9,15.3z M16.9,33.7l-0.5,1.1l-2.2,3.8L14,38l-0.2-0.5l-0.1-0.6v-0.6
				l0.1-0.6L14,35l0.3-0.6l0.4-0.5l0.4-0.2l0.3-0.4l0.1-0.3l0.1-0.4v-0.3v-0.4v-0.3l-0.1-0.3l-0.1-0.9l-0.4-0.9l-0.4-0.9L14,27.6
				l-0.6-0.8l-0.9-0.6l-0.8-0.6l-1.1-0.4l-0.3-0.1h-0.2L9.9,25H9.7H9.4l0,0v0.8l0,0l0.6,0.9l0.5,0.8l0.4,0.9l0.1,1l0.1,0.9v1
				L11,32.1l-0.3,0.7l-0.1,0.7V34l0.1,0.6l0.1,0.6l0.2,0.5l0.3,0.6l0.5,0.5l0.3,0.4l0.4,0.3l0.4,0.3l0.4,0.3l0.3,0.3l0.4,0.4
				l0.2,0.3l0.3,0.4L13.4,43l-0.6,3.5l-0.4,3.7v3.6l0.5,3.8l1.1,3.6l1.7,3.6l1.3,1.7v-4.2l-0.3-0.5l-1.2-2.6l-0.6-2.6l-0.5-3.8
				l-0.1-3.6l0.4-3.5l0.7-3.2l1-3.4l0.6-1.6V33.7L16.9,33.7z M16.9,42v1h-0.1l0,0l-0.1-0.1L16.9,42L16.9,42z M16.9,46.3v6l-0.5,0.4
				L16,53.2l-0.1-0.9v-0.9l0.1-0.8v-0.8l0.1-0.8l0.3-0.9l0.1-0.8l0.3-0.9L16.9,46.3L16.9,46.3z M16.9,75.5v4l-1.5-1.1l-0.6-0.6
				l-0.7-0.6l-0.6-0.7l-0.6-0.8l-0.5-0.8l-0.4-0.8L12,73.3v-0.8l1.8,1.7l2,1L16.9,75.5L16.9,75.5z M9.4,67.7v-5.3l0.5,0.1l1.3,0.3
				l1.2,0.6l1.2,0.5l2.9,4.3l-1.1-0.4l-1.2-0.1H13H12l-1.2,0.1l-1.1-0.1L9.4,67.7L9.4,67.7z M9.4,58.1v-4.8l0.1,0.1l0.5,0.8l0.5,0.8
				l0.4,0.8l0.2,0.8l0.3,0.7l0.3,0.8l0.1,0.8l0.1,0.9L11.2,59l-0.7-0.4l-0.7-0.3L9.4,58.1L9.4,58.1z M9.4,43.1v-7.3l0.6,1.6l0.1,2
				l-0.4,2.1L9.4,43.1z M9.4,25v0.8l-0.7-0.7L8.9,25h0.3H9.4L9.4,25z M9.4,35.8v7.3l-0.1,0.5l-0.5,2.2l-0.3,2.1l0.3,2.2l0,0v0.1v0.1
				v0.1v0.1H8.7l0,0l-0.1-0.1l-1-1.3V33.4l0.3,0.1l1.4,1.9L9.4,35.8L9.4,35.8z M9.4,53.3v4.8l-0.5-0.3l-0.8-0.4l-0.5-0.3v-5.3
				L9.4,53.3L9.4,53.3z M9.4,62.4v5.3l-0.9-0.3l-1-0.6v-5l1,0.3L9.4,62.4z M7.6,33.4v15.7l-0.7-1l-1-2.5l-0.6-2.5l-0.3-2.5v-2.6
				l0.1-2.5l0.2-2.5v-2.5L5.6,31h0.1l0.1,0.1h0.1L6,31.2l0,0l0.1,0.1l0,0l0.3,0.3l0.1,0.2l0.3,0.4l0.1,0.2l0.2,0.3L7.4,33l0.1,0.3
				L7.6,33.4L7.6,33.4z M7.6,51.9l-5.1-3.8l0.1,1l0.1,1l0.1,1.1l0.4,1l0.4,1l0.5,1.1l0.6,1l0.9,1l0.8,0.4l0.8,0.3l0.4,0.2V51.9
				L7.6,51.9z M7.6,61.8v5l-0.1-0.1l-1.1-0.6l-0.8-0.8L5,64.4l-0.5-0.9l-0.4-1l-0.1-1l-0.1-1.1l0.1-1l1,1L6,61.2l1.2,0.6L7.6,61.8z"
				/>
			<path class="st1" d="M36.1,48.1c3.4,5.5,9.7,13.5,26.2,21.5c14.2-6.5,20.9-13.1,27.2-20.7l0.3-28.3L36,20.8L36.1,48.1z"/>
			<path class="st0" d="M38.6,49.8c3.5,6,6.7,11,23.7,19.9c14.5-7.2,19.4-12.8,25.9-21.2l-1.1-0.5l-18.5-3.8l-7.7-1.2L38.6,49.8z"/>
			<path class="st2" d="M36.1,13c8.7,3.5,17.5,3.8,26.2-0.6c9,4.5,18,4.4,27,0.6v16.7H36.1V13z"/>
			<path class="st3" d="M62.6,40.4c2.2,1.2,4,2.7,5.5,4.4c-1.8,1.2-3.7,2.3-5.5,3.5v7.4c2.6,1.3,4.8,3.2,6.4,5.8l16.3-14
				c-6-4-12.5-3.9-21.4-3.4c-0.4,0.6-0.9,1.2-1.3,1.8V40.4L62.6,40.4z M62.6,57.3v-0.6c2,1,4,2.6,5.4,5.2c0.1,0.1,0.1,0.3-0.1,0.4
				c-0.2,0.1-0.3,0-0.3-0.1C66.4,59.8,64.5,58.3,62.6,57.3z M40.9,49.1l15.8-10.6c2.3,0.4,4.2,1,5.9,1.9v5.4
				c-2.5,3.6-5,7.1-7.5,10.7C51.6,52,46.9,49.2,40.9,49.1L40.9,49.1z M62.6,48.2c-2.6,1.7-5.3,3.4-7.9,5c3,0.4,5.6,1.2,7.9,2.4V48.2
				L62.6,48.2z M62.6,56.7c-1.4-0.7-2.8-1.2-3.9-1.5c-0.5-0.2-0.9-0.3-1.3-0.5c-0.1,0-0.2-0.1-0.3,0.1c-0.1,0.3,0,0.3,0.1,0.4
				c0.4,0.1,0.8,0.3,1.3,0.5c1.1,0.4,2.5,0.8,4,1.6V56.7z"/>
			<path class="st2" d="M62.8,10.7c0.1,0,0.3,0,0.3,0.1c7.3,5,18.5,5.2,25.7,0c0.7-0.5,1.7,0.1,1.7,1c0,7.7,0.3,14,0.6,19.2
				c0.1,1.5,0.1,2.9,0.1,4.2v2.9C90.9,53.9,85.4,58,63,71.1c-0.1,0-0.1,0-0.3,0.1v-2.6c23.4-13.8,27.1-17,26.1-37.3
				c-0.3-4.7-0.5-10.3-0.5-17.2c-7.2,4.5-18.4,4-25.6-0.5V10.7z M36.8,10.8c7.1,5.2,18.1,5.2,25.2,0c0.2-0.1,0.5-0.2,0.8-0.1v2.7
				c-0.1-0.1-0.1-0.1-0.2-0.2c-7.1,4.9-18.2,5.2-25.3,0.7c-0.1,6.8-0.3,12.4-0.5,17.1c-1,20.3,2.7,23.7,25.8,37.6
				c0.1,0,0.2-0.1,0.3-0.1v2.6c-0.3,0-0.6,0-0.8-0.1C40.2,58,34.7,53.6,34.4,38v-2.9c0-1.3,0.1-2.7,0.1-4.2
				c0.3-5.2,0.5-11.4,0.5-19.1C35.1,10.9,36.1,10.3,36.8,10.8z"/>
			<path class="st3" d="M68.4,39.4h2.3c0.2,0,0.4,0.1,0.4,0.3v2.3c0,0.2-0.2,0.3-0.4,0.3h-2.3c-0.2,0-0.3-0.1-0.3-0.3v-2.3
				C68.1,39.5,68.2,39.4,68.4,39.4z"/>
			<path class="st3" d="M72.6,36.8h1.9c0.2,0,0.3,0.1,0.3,0.3V39c0,0.1-0.1,0.3-0.3,0.3h-1.9c-0.2,0-0.3-0.1-0.3-0.3v-1.9
				C72.3,36.9,72.4,36.8,72.6,36.8z"/>
			<path class="st3" d="M67.8,33.2h1.4c0.1,0,0.2,0.1,0.2,0.2v1.4c0,0.1-0.1,0.2-0.2,0.2h-1.4c-0.1,0-0.2-0.1-0.2-0.2v-1.4
				C67.7,33.3,67.7,33.2,67.8,33.2z"/>
			<path class="st3" d="M73,31h0.8c0.1,0,0.1,0.1,0.1,0.1v0.8c0,0.1-0.1,0.1-0.1,0.1H73c0,0-0.1-0.1-0.1-0.1v-0.8
				C72.9,31,73,31,73,31z"/>
			<path class="st3" d="M74.3,40.8h3.8c0.3,0,0.5,0.3,0.5,0.5v3.8c0,0.3-0.3,0.5-0.5,0.5h-3.8c-0.3,0-0.5-0.2-0.5-0.5v-3.8
				C73.8,41,74,40.8,74.3,40.8z"/>
			<path class="st3" d="M76,33.5h1.1c0.1,0,0.1,0.1,0.1,0.1v1.1c0,0.1-0.1,0.1-0.1,0.1H76c-0.1,0-0.1-0.1-0.1-0.1v-1.1
				C75.9,33.6,76,33.5,76,33.5z"/>
			<path class="st3" d="M72.2,34.6h0.4c0,0,0.1,0,0.1,0v0.5c0,0,0,0.1-0.1,0.1h-0.4c0,0-0.1,0-0.1-0.1L72.2,34.6
				C72.1,34.6,72.1,34.6,72.2,34.6z"/>
		</g>
		<path class="st3" d="M44.3,25.3c0-0.3-0.1-0.6-0.4-0.8c-0.2-0.2-0.5-0.3-0.8-0.3c-0.1,0-0.3,0-0.4,0.1c-0.1,0-0.3,0.1-0.4,0.1
			c-0.2,0.1-0.4,0.2-0.5,0.3c-0.2,0.1-0.4,0.1-0.6,0.1c-0.3,0-0.5-0.1-0.8-0.2c-0.3-0.1-0.4-0.3-0.6-0.5s-0.3-0.5-0.3-0.8
			c-0.1-0.3-0.1-0.6-0.1-0.9c0-0.3,0-0.6,0.1-0.9c0.1-0.3,0.2-0.5,0.3-0.7c0.1-0.2,0.3-0.4,0.5-0.5c0.2-0.1,0.5-0.3,0.7-0.3
			c0.1,0,0.2,0,0.3,0c0.3,0,0.6,0.1,0.8,0.2c0.3,0.1,0.5,0.3,0.8,0.5c0.1,0,0.2,0.1,0.3,0c0.1,0,0.2,0,0.3-0.1l0.6-1.3
			c0-0.1,0-0.1,0-0.2c0,0-0.1-0.1-0.1-0.1c-0.1-0.1-0.4-0.3-0.6-0.4c-0.3-0.1-0.5-0.3-0.8-0.4c-0.3-0.1-0.6-0.2-0.9-0.3
			c-0.3,0-0.5-0.1-0.8-0.1h-0.3c-0.6,0.1-1.1,0.2-1.6,0.5c-0.5,0.3-0.9,0.6-1.2,1c-0.4,0.4-0.6,0.9-0.8,1.4
			c-0.2,0.5-0.3,1.1-0.3,1.7c0,0.5,0.1,1,0.3,1.5c0.1,0.5,0.4,0.9,0.6,1.3v0c0.4,0.6,0.9,1.1,1.5,1.4c0.6,0.3,1.3,0.5,2.1,0.5
			c0.2,0,0.4,0,0.6,0c0.2,0,0.4-0.1,0.7-0.1c0.2-0.1,0.4-0.1,0.6-0.2c0.2-0.1,0.4-0.2,0.5-0.4c0.1-0.1,0.3-0.3,0.4-0.5
			C44.3,25.6,44.3,25.5,44.3,25.3z"/>
		<path class="st3" d="M51.1,18.8c0-0.3-0.1-0.6-0.3-0.8c-0.2-0.2-0.5-0.3-0.8-0.3h-4.8c-0.1,0-0.2,0-0.3,0.1
			c-0.1,0-0.1,0.1-0.1,0.1v1.7c0,0.1,0,0.1,0.1,0.2c0.1,0.1,0.2,0.1,0.3,0.1h1.4v5.9c0,0.2,0,0.3,0.1,0.5c0.1,0.1,0.2,0.3,0.3,0.4
			c0.1,0.1,0.3,0.2,0.4,0.3c0.1,0.1,0.3,0.1,0.5,0.1c0.1,0,0.3,0,0.5-0.1c0.2-0.1,0.3-0.1,0.4-0.3c0.1-0.1,0.2-0.3,0.3-0.4
			c0.1-0.1,0.1-0.3,0.1-0.5v-5.9H50c0.2,0,0.3,0,0.4-0.1c0.1-0.1,0.3-0.1,0.4-0.2c0.1-0.1,0.2-0.2,0.3-0.4
			C51.1,19.1,51.1,19,51.1,18.8z"/>
		<path class="st3" d="M54.9,21L54.9,21L54.9,21L54.9,21C54.8,21,54.8,21,54.9,21c-0.1,0-0.1,0-0.1,0c-0.1,0-0.2-0.1-0.3-0.1
			c-0.1,0-0.2-0.1-0.3-0.1c-0.1-0.1-0.1-0.1-0.2-0.2c0-0.1-0.1-0.2-0.1-0.3c0-0.2,0.1-0.3,0.2-0.4c0.1-0.1,0.3-0.1,0.4-0.1
			c0.1,0,0.3,0,0.5,0.1c0.1,0.1,0.3,0.1,0.5,0.2c0.1,0.1,0.3,0.1,0.4,0.2c0.1,0,0.3,0.1,0.5,0.1c0.3,0,0.6-0.1,0.8-0.3
			c0.2-0.2,0.3-0.5,0.3-0.8c0-0.3-0.1-0.5-0.3-0.8c-0.2-0.2-0.4-0.4-0.7-0.5c-0.3-0.1-0.5-0.2-0.9-0.3c-0.3-0.1-0.6-0.1-0.8-0.1
			c-0.4,0-0.8,0.1-1.2,0.2c-0.4,0.1-0.8,0.3-1.1,0.5c-0.3,0.3-0.6,0.5-0.8,0.9c-0.2,0.4-0.3,0.8-0.3,1.2c0,0.4,0.1,0.8,0.3,1.1
			c0.1,0.3,0.4,0.5,0.6,0.7c0.3,0.2,0.5,0.4,0.8,0.5c0.3,0.1,0.6,0.3,1,0.4c0.2,0.1,0.4,0.1,0.6,0.2l0,0c0,0,0.1,0.1,0.2,0.1
			c0.1,0,0.2,0.1,0.3,0.1c0.1,0.1,0.1,0.1,0.2,0.2c0.1,0,0.1,0.1,0.1,0.2c0,0.1,0,0.3-0.1,0.4c0,0.1-0.1,0.2-0.2,0.3
			c-0.1,0.1-0.1,0.1-0.3,0.2c-0.1,0-0.2,0-0.3,0c-0.2,0-0.4,0-0.6-0.1c-0.2-0.1-0.4-0.1-0.7-0.3c-0.1,0-0.2,0-0.3-0.1
			c-0.1-0.1-0.2-0.1-0.3-0.1c-0.1,0-0.3-0.1-0.3-0.1c-0.1,0-0.2,0-0.2-0.1c-0.1,0-0.3,0-0.4,0c-0.1,0.1-0.2,0.1-0.2,0.3c0,0,0,0,0,0
			v0c0,0,0,0,0,0.1c0,0,0,0.1-0.1,0.1c0,0,0,0.1,0,0.1h0c0,0,0,0.1-0.1,0.1c0,0,0,0.1,0,0.1c-0.1,0.2-0.1,0.3-0.1,0.5
			c0,0.1-0.1,0.3-0.1,0.5c0,0.1,0,0.1,0,0.2c0,0.1,0.1,0.1,0.1,0.1c0.2,0.1,0.4,0.2,0.7,0.3c0.3,0.1,0.6,0.2,0.9,0.3
			c0.3,0.1,0.6,0.1,0.9,0.2c0.3,0,0.5,0.1,0.7,0.1c0.6,0,1.1-0.1,1.6-0.3c0.5-0.2,0.9-0.6,1.3-1c0.2-0.3,0.3-0.5,0.4-0.8
			c0.1-0.3,0.2-0.6,0.2-0.9c0-0.5-0.1-0.9-0.3-1.2c-0.2-0.3-0.4-0.6-0.8-0.8c-0.3-0.2-0.6-0.4-1-0.5C55.5,21.2,55.2,21.1,54.9,21z"
			/>
		<path class="st3" d="M66.1,25.3c0-0.3-0.1-0.6-0.3-0.8c-0.3-0.2-0.5-0.3-0.8-0.3c-0.1,0-0.3,0-0.4,0.1c-0.1,0-0.3,0.1-0.4,0.1
			c-0.2,0.1-0.3,0.2-0.5,0.3c-0.2,0.1-0.4,0.1-0.6,0.1c-0.3,0-0.6-0.1-0.8-0.2c-0.2-0.1-0.4-0.3-0.5-0.5s-0.3-0.5-0.3-0.8
			c-0.1-0.3-0.1-0.6-0.1-0.9c0-0.3,0-0.6,0.1-0.9c0.1-0.3,0.2-0.5,0.3-0.7c0.1-0.2,0.3-0.4,0.5-0.5c0.1-0.1,0.4-0.3,0.6-0.3
			c0.1,0,0.2,0,0.3,0c0.3,0,0.6,0.1,0.9,0.2c0.3,0.1,0.5,0.3,0.8,0.5c0.1,0,0.2,0.1,0.3,0c0.1,0,0.2,0,0.3-0.1l0.7-1.3
			c0-0.1,0-0.1,0-0.2c0,0-0.1-0.1-0.1-0.1c-0.2-0.1-0.4-0.3-0.6-0.4c-0.3-0.1-0.5-0.3-0.8-0.4c-0.3-0.1-0.5-0.2-0.8-0.3
			c-0.3,0-0.5-0.1-0.8-0.1h-0.3c-0.5,0.1-1.1,0.2-1.6,0.5c-0.5,0.3-0.9,0.6-1.3,1c-0.4,0.4-0.6,0.9-0.8,1.4
			c-0.2,0.5-0.3,1.1-0.3,1.7c0,0.5,0.1,1,0.2,1.5c0.1,0.5,0.4,0.9,0.6,1.3v0c0.4,0.6,0.9,1.1,1.5,1.4c0.6,0.3,1.3,0.5,2.1,0.5
			c0.2,0,0.4,0,0.6,0c0.2,0,0.4-0.1,0.6-0.1c0.2-0.1,0.4-0.1,0.6-0.2c0.2-0.1,0.4-0.2,0.6-0.4c0.1-0.1,0.3-0.3,0.4-0.5
			C66,25.6,66.1,25.5,66.1,25.3z"/>
		<path class="st3" d="M74,24.1c0-0.4-0.1-0.8-0.3-1.2c-0.2-0.4-0.5-0.6-0.9-0.9h0l-0.2-0.1c0.2-0.2,0.4-0.4,0.5-0.7
			c0.1-0.3,0.1-0.5,0.1-0.8c0-0.4-0.1-0.8-0.3-1.1c-0.1-0.4-0.4-0.6-0.6-0.9c-0.3-0.2-0.6-0.4-0.9-0.5c-0.3-0.1-0.6-0.2-0.9-0.2V20
			c0,0,0,0,0.1,0.1c0.1,0.1,0.1,0.3,0.1,0.4s0,0.4-0.2,0.5c0,0,0,0,0,0v2.3h0.2c0.2,0,0.3,0,0.4,0.2c0.1,0.1,0.2,0.3,0.2,0.5
			s-0.1,0.4-0.2,0.5c-0.1,0.1-0.3,0.2-0.4,0.2h-0.2v2.2h0.4c0.4,0,0.8-0.1,1.2-0.2c0.4-0.1,0.6-0.3,0.9-0.6c0.3-0.2,0.5-0.5,0.6-0.9
			C74,24.9,74,24.5,74,24.1z M70.6,17.7c-0.1,0-0.1,0-0.3,0h-1.8c-0.4,0-0.7,0.1-0.9,0.4c-0.3,0.2-0.4,0.5-0.4,0.9v7.7
			c0,0.1,0,0.1,0.1,0.2c0.1,0.1,0.1,0.1,0.3,0.1c0.1,0,0.3,0,0.5,0c0.2,0,0.5,0,0.8,0h1.7v-2.2h-0.8v-1.4h0.8V21
			c-0.1,0.1-0.2,0.1-0.4,0.1h-0.4v-1.2h0.5c0.1,0,0.3,0,0.3,0.1V17.7z"/>
		<path class="st3" d="M82,25.3c0-0.3-0.1-0.6-0.4-0.8c-0.2-0.2-0.5-0.3-0.8-0.3c-0.1,0-0.3,0-0.4,0.1c-0.1,0-0.3,0.1-0.4,0.1
			c-0.2,0.1-0.4,0.2-0.5,0.3c-0.2,0.1-0.4,0.1-0.6,0.1c-0.3,0-0.6-0.1-0.8-0.2c-0.2-0.1-0.4-0.3-0.6-0.5s-0.3-0.5-0.3-0.8
			c-0.1-0.3-0.1-0.6-0.1-0.9c0-0.3,0-0.6,0.1-0.9c0.1-0.3,0.2-0.5,0.3-0.7c0.1-0.2,0.3-0.4,0.5-0.5c0.2-0.1,0.4-0.3,0.7-0.3
			c0.1,0,0.2,0,0.3,0c0.3,0,0.6,0.1,0.8,0.2c0.3,0.1,0.5,0.3,0.8,0.5c0.1,0,0.2,0.1,0.3,0c0.1,0,0.2,0,0.3-0.1l0.6-1.3
			c0-0.1,0-0.1,0-0.2c0,0-0.1-0.1-0.1-0.1c-0.2-0.1-0.4-0.3-0.6-0.4c-0.2-0.1-0.5-0.3-0.8-0.4c-0.3-0.1-0.6-0.2-0.8-0.3
			c-0.3,0-0.5-0.1-0.8-0.1h-0.3c-0.6,0.1-1.1,0.2-1.6,0.5c-0.5,0.3-0.9,0.6-1.2,1c-0.4,0.4-0.6,0.9-0.8,1.4
			c-0.2,0.5-0.3,1.1-0.3,1.7c0,0.5,0.1,1,0.2,1.5c0.1,0.5,0.4,0.9,0.6,1.3v0c0.4,0.6,0.9,1.1,1.5,1.4c0.6,0.3,1.3,0.5,2.1,0.5
			c0.2,0,0.4,0,0.6,0c0.3,0,0.5-0.1,0.7-0.1c0.2-0.1,0.4-0.1,0.6-0.2c0.2-0.1,0.4-0.2,0.5-0.4c0.1-0.1,0.3-0.3,0.4-0.5
			C82,25.6,82,25.5,82,25.3z"/>
		<path class="st3" d="M86.3,21L86.3,21C86.4,21,86.4,21,86.3,21L86.3,21C86.3,21,86.3,21,86.3,21c0,0-0.1,0-0.1,0
			c-0.1,0-0.1-0.1-0.2-0.1c-0.1,0-0.2-0.1-0.3-0.1c-0.1-0.1-0.1-0.1-0.2-0.2c0-0.1-0.1-0.2-0.1-0.3c0-0.2,0.1-0.3,0.2-0.4
			c0.1-0.1,0.2-0.1,0.3-0.1c0.2,0,0.4,0,0.5,0.1c0.1,0.1,0.3,0.1,0.4,0.2c0.1,0.1,0.3,0.1,0.4,0.2c0.1,0,0.3,0.1,0.5,0.1
			c0.3,0,0.6-0.1,0.8-0.3c0.2-0.2,0.3-0.5,0.3-0.8c0-0.3-0.1-0.5-0.3-0.8c-0.2-0.2-0.4-0.4-0.7-0.5c-0.3-0.1-0.6-0.2-0.9-0.3
			c-0.3-0.1-0.6-0.1-0.8-0.1c-0.4,0-0.8,0.1-1.2,0.2c-0.4,0.1-0.8,0.3-1.1,0.5c-0.3,0.3-0.6,0.5-0.8,0.9c-0.2,0.4-0.3,0.8-0.3,1.2
			c0,0.4,0.1,0.8,0.2,1.1c0.2,0.3,0.4,0.5,0.6,0.7c0.3,0.2,0.5,0.4,0.9,0.5c0.3,0.1,0.6,0.3,0.9,0.4c0.2,0.1,0.4,0.1,0.6,0.2l0,0
			c0.1,0,0.1,0.1,0.2,0.1c0.1,0,0.2,0.1,0.3,0.1c0.1,0.1,0.1,0.1,0.2,0.2c0,0,0.1,0.1,0.1,0.2c0,0.1,0,0.3-0.1,0.4
			c0,0.1-0.1,0.2-0.2,0.3c-0.1,0.1-0.1,0.1-0.3,0.2c-0.1,0-0.2,0-0.3,0c-0.2,0-0.4,0-0.6-0.1c-0.2-0.1-0.4-0.1-0.7-0.3
			c-0.1,0-0.2,0-0.3-0.1c-0.1-0.1-0.3-0.1-0.4-0.1c-0.1,0-0.2-0.1-0.3-0.1c-0.1,0-0.2,0-0.2-0.1c-0.1,0-0.3,0-0.4,0
			c-0.1,0.1-0.2,0.1-0.2,0.3c0,0,0,0,0,0v0c0,0,0,0,0,0.1c0,0,0,0.1,0,0.1c0,0,0,0.1,0,0.1l0,0c0,0,0,0.1,0,0.1c0,0,0,0.1-0.1,0.1
			c0,0.2-0.1,0.3-0.1,0.5c-0.1,0.1-0.1,0.3-0.1,0.5c0,0.1,0,0.1,0,0.2c0.1,0.1,0.1,0.1,0.2,0.1c0.2,0.1,0.4,0.2,0.7,0.3
			c0.3,0.1,0.6,0.2,0.9,0.3c0.3,0.1,0.6,0.1,0.9,0.2c0.3,0,0.5,0.1,0.8,0.1c0.6,0,1.1-0.1,1.6-0.3c0.5-0.2,0.9-0.6,1.2-1
			c0.2-0.3,0.4-0.5,0.5-0.8c0.1-0.3,0.1-0.6,0.1-0.9c0-0.5-0.1-0.9-0.3-1.2c-0.2-0.3-0.5-0.6-0.8-0.8c-0.3-0.2-0.6-0.4-1-0.5
			C87.1,21.2,86.7,21.1,86.3,21z"/>
	</g>
	<polygon class="st2" points="37.3,15.3 36,26.9 39.6,28.3 89.3,28.3 90.1,24.1 89.5,14.3 56.3,15.9 	"/>
	<g>
		<path class="st3" d="M42.6,24.5c-0.2,0.1-0.8,0.2-1.4,0.2c-2,0-3-1.2-3-2.9c0-2,1.4-3,3.1-3c0.7,0,1.2,0.1,1.4,0.3l-0.3,1
			c-0.3-0.1-0.6-0.2-1.1-0.2c-1,0-1.8,0.6-1.8,1.9c0,1.2,0.7,1.9,1.8,1.9c0.4,0,0.8-0.1,1.1-0.2L42.6,24.5z"/>
		<path class="st3" d="M44.6,20h-1.5v-1.1h4.4V20h-1.6v4.7h-1.3V20z"/>
		<path class="st3" d="M48.1,23.3c0.3,0.2,0.9,0.4,1.4,0.4c0.6,0,0.9-0.2,0.9-0.6c0-0.4-0.3-0.6-1-0.8c-0.9-0.3-1.6-0.9-1.6-1.7
			c0-1,0.8-1.7,2.1-1.7c0.6,0,1.1,0.1,1.4,0.3l-0.3,1c-0.2-0.1-0.6-0.3-1.2-0.3c-0.6,0-0.8,0.3-0.8,0.6c0,0.4,0.3,0.5,1.1,0.8
			c1,0.4,1.5,0.9,1.5,1.7c0,1-0.7,1.8-2.3,1.8c-0.6,0-1.3-0.2-1.6-0.4L48.1,23.3z"/>
		<path class="st3" d="M58.5,24.5c-0.2,0.1-0.8,0.2-1.4,0.2c-2,0-3-1.2-3-2.9c0-2,1.4-3,3.1-3c0.7,0,1.2,0.1,1.4,0.3l-0.3,1
			c-0.3-0.1-0.6-0.2-1.1-0.2c-1,0-1.8,0.6-1.8,1.9c0,1.2,0.7,1.9,1.8,1.9c0.4,0,0.8-0.1,1.1-0.2L58.5,24.5z"/>
		<path class="st3" d="M64.3,21.7c0,1.9-1.1,3-2.8,3c-1.7,0-2.7-1.3-2.7-2.9c0-1.7,1.1-3,2.8-3C63.3,18.8,64.3,20.1,64.3,21.7z
			 M60.2,21.8c0,1.1,0.5,1.9,1.4,1.9c0.9,0,1.4-0.8,1.4-2c0-1-0.5-1.9-1.4-1.9C60.7,19.8,60.2,20.7,60.2,21.8z"/>
		<path class="st3" d="M65.1,18.9h1.3v4.7h2.3v1.1h-3.5V18.9z"/>
		<path class="st3" d="M69.4,18.9h1.3v4.7H73v1.1h-3.5V18.9z"/>
		<path class="st3" d="M77.1,22.2H75v1.4h2.3v1.1h-3.6v-5.8h3.5V20H75v1.2h2.1V22.2z"/>
		<path class="st3" d="M83,24.4c-0.4,0.1-1.1,0.3-1.9,0.3c-1,0-1.8-0.3-2.3-0.8c-0.5-0.5-0.8-1.3-0.8-2.1c0-1.9,1.4-3,3.2-3
			c0.7,0,1.3,0.1,1.6,0.3l-0.3,1.1c-0.3-0.1-0.7-0.2-1.3-0.2c-1.1,0-1.9,0.6-1.9,1.9c0,1.2,0.7,1.9,1.8,1.9c0.3,0,0.5,0,0.6-0.1
			v-1.2h-0.9v-1H83V24.4z"/>
		<path class="st3" d="M87.4,22.2h-2.1v1.4h2.3v1.1H84v-5.8h3.5V20h-2.2v1.2h2.1V22.2z"/>
	</g>
</g>
</svg>
